<?xml version="1.0" encoding="UTF-8" standalone="no"?>
<!-- Created with Inkscape (http://www.inkscape.org/) -->

<svg
   width="1150"
   height="1150"
   viewBox="0 0 1150 1150"
   version="1.1"
   id="svg1"
   xmlns:xlink="http://www.w3.org/1999/xlink"
   xmlns="http://www.w3.org/2000/svg"
   xmlns:svg="http://www.w3.org/2000/svg">
  <defs
     id="defs1">
    <linearGradient
       id="linearGradient6">
      <stop
         style="stop-color:#2b1c06;stop-opacity:1;"
         offset="0"
         id="stop7" />
      <stop
         style="stop-color:#192316;stop-opacity:1;"
         offset="1"
         id="stop6" />
    </linearGradient>
    <linearGradient
       id="linearGradient4">
      <stop
         style="stop-color:#eca67c;stop-opacity:1;"
         offset="0"
         id="stop5" />
      <stop
         style="stop-color:#fb3535;stop-opacity:1;"
         offset="1"
         id="stop4" />
    </linearGradient>
    <linearGradient
       xlink:href="#linearGradient4"
       id="linearGradient5"
       x1="25"
       y1="600"
       x2="1175"
       y2="600"
       gradientUnits="userSpaceOnUse" />
    <linearGradient
       xlink:href="#linearGradient6"
       id="linearGradient7"
       x1="100"
       y1="600"
       x2="1100"
       y2="600"
       gradientUnits="userSpaceOnUse" />
  </defs>
  <g
     id="layer1"
     transform="translate(-25,-25)">
    <rect
       style="fill:url(#linearGradient5);stroke-width:1.01598"
       id="rect1"
       width="1150"
       height="1150"
       x="25"
       y="25"
       ry="107.93613" />
    <rect
       style="fill:url(#linearGradient7);stroke-width:0.883461"
       id="rect2"
       width="1000"
       height="1000"
       x="100"
       y="100"
       ry="56.218418" />
    <path
       style="fill:#f9f9f9;stroke-width:5"
       d="m 994.85037,1020.2435 h -43.5417 l -39.37503,-159.37509 -7.50001,-35.20836 q -1.875,9.37501 -5.83334,27.08335 -3.95833,17.50002 -42.50003,167.5001 H 812.76689 L 749.64185,794.82669 h 37.08336 l 38.12503,153.12512 q 1.45833,5 8.95834,41.25003 l 3.54167,-15.41668 47.08336,-178.95847 h 40.20837 l 39.37503,154.79179 9.58334,39.58336 6.45834,-28.95836 42.70841,-165.41679 h 36.6666 z"
       id="path4" />
    <path
       style="fill:#f9f9f9;stroke-width:5"
       d="m 570.47505,915.45178 q 0,38.75003 16.04168,59.79172 16.04168,21.04168 46.87503,21.04168 24.37502,0 38.95837,-9.79168 14.79168,-9.79167 20.00001,-24.79168 l 32.91669,9.37501 q -20.20834,53.33337 -91.87507,53.33337 -50.00003,0 -76.25005,-29.79169 -26.04169,-29.79169 -26.04169,-88.54173 0,-55.83338 26.04169,-85.62507 26.25002,-29.79169 74.79172,-29.79169 99.37508,0 99.37508,119.79176 v 5 z m 122.08343,-28.75002 q -3.12501,-35.62503 -18.12502,-51.87504 -15.00001,-16.45834 -43.12503,-16.45834 -27.29169,0 -43.33337,18.33334 -15.83334,18.12502 -17.08334,50.00004 z"
       id="path3" />
    <path
       style="fill:#f9f9f9;stroke-width:5"
       d="M 446.72495,1020.2435 V 794.82669 h 37.50003 v 225.41681 z"
       id="path2" />
    <path
       style="fill:#f9f9f9;stroke-width:5"
       d="m 446.72495,762.535 v -35.83336 h 37.50003 V 762.535 Z"
       id="path1" />
    <path
       style="fill:#f9f9f9;stroke-width:5"
       d="M 304.22484,1020.2435 H 262.9748 L 143.18305,726.70164 h 41.87503 l 81.25006,206.66682 17.50001,51.87504 17.50002,-51.87504 80.83339,-206.66682 h 41.87503 z"
       id="text2" />
    <path
       style="fill:#d31a1a;stroke-width:2.128"
       d="M 515.57495,641.41913 V 369.60487 q 0,-9.23023 0,-18.46046 0.31829,-9.23022 3.18284,-79.25263 -22.59814,85.61831 -33.41979,119.35638 L 404.49395,641.41913 H 337.65438 L 256.81032,391.24816 222.75397,271.89178 q 3.8194,73.84181 3.8194,97.71309 V 641.41913 H 143.18305 V 192.95743 H 268.9051 l 80.20749,250.80753 7.00224,24.18956 15.27762,60.15562 20.05187,-71.93211 82.43547,-263.2206 h 125.08549 v 448.4617 z"
       id="text3"
       aria-label="M" />
    <path
       style="fill:#b4ba9f;stroke:#566156;stroke-width:6"
       d="m 1053.7365,520.21062 q 0,84.38412 -47.2551,132.38931 -47.25515,48.00519 -130.51415,48.00519 -93.38509,0 -143.64052,-65.25705 -49.88039,-65.6321 -49.88039,-194.271 0,-141.39028 50.63047,-212.64798 51.00551,-71.63274 145.51573,-71.63274 67.13225,0 105.76143,29.6282 39.00423,29.6282 55.13093,91.88493 l -99.38572,13.8765 q -14.25154,-52.13063 -63.75689,-52.13063 -42.37958,0 -66.75721,42.37958 -24.0026,42.37958 -24.0026,128.6389 16.87683,-28.12804 46.88007,-43.12966 30.00324,-15.00162 67.88234,-15.00162 70.88266,0 112.13711,45.00486 41.2545,45.00486 41.2545,122.26321 z m -105.76147,3.00033 q 0,-45.00487 -21.00227,-68.63242 -20.62722,-24.00259 -57.00616,-24.00259 -34.87877,0 -55.88104,22.50243 -21.00227,22.12739 -21.00227,58.88136 0,46.12999 21.75236,76.50827 22.12739,30.00324 57.75624,30.00324 35.62885,0 55.506,-25.12771 19.87714,-25.50276 19.87714,-70.13258 z"
       id="text4"
       aria-label="6" />
  </g>
</svg>
