<svg height="96" width="96" xmlns="http://www.w3.org/2000/svg" xmlns:xlink="http://www.w3.org/1999/xlink"><linearGradient id="a"><stop offset="0" stop-color="#fefefe"/><stop offset="1" stop-color="#fefefe" stop-opacity="0"/></linearGradient><linearGradient id="b"><stop offset="0" stop-color="#352822"/><stop offset="1" stop-color="#352822" stop-opacity="0"/></linearGradient><linearGradient id="c" gradientUnits="userSpaceOnUse" x1="36.357143" x2="36.357143" xlink:href="#a" y1="6" y2="63.893143"/><filter id="d" color-interpolation-filters="sRGB" height="1.384" width="1.384" x="-.192" y="-.192"><feGaussianBlur stdDeviation="5.28"/></filter><linearGradient id="e" gradientUnits="userSpaceOnUse" x1="48" x2="48" xlink:href="#a" y1="20.220806" y2="138.66119"/><radialGradient id="f" cx="48" cy="90.171875" gradientTransform="matrix(1.1573129 0 0 .99590774 -7.551021 .197132)" gradientUnits="userSpaceOnUse" r="42" xlink:href="#a"/><clipPath id="g"><rect height="84" rx="6" width="84" x="6" y="6"/></clipPath><linearGradient id="h" gradientUnits="userSpaceOnUse" x1="48" x2="48" y1="90" y2="5.987717"><stop offset="0" stop-color="#d89a6d"/><stop offset="1" stop-color="#fed4be"/></linearGradient><radialGradient id="i" cx="47.119976" cy="37.319492" gradientTransform="matrix(.99999998 .67851598 -.26279139 .38730316 9.807242 -2.00261)" gradientUnits="userSpaceOnUse" r="29.694843"><stop offset="0" stop-color="#5b4f4f"/><stop offset=".5" stop-color="#5b4f4f" stop-opacity=".612903"/><stop offset="1" stop-color="#5b4f4f" stop-opacity="0"/></radialGradient><radialGradient id="j" cx="47.035229" cy="28.843788" gradientTransform="matrix(.99999991 .3024614 -.12745446 .42139078 3.676274 14.042378)" gradientUnits="userSpaceOnUse" r="30.110098"><stop offset="0"/><stop offset=".5" stop-opacity=".701613"/><stop offset="1" stop-opacity="0"/></radialGradient><linearGradient id="k" gradientUnits="userSpaceOnUse" x1="39.120537" x2="69.125" y1="62.960247" y2="69.617165"><stop offset="0" stop-color="#d35f5f"/><stop offset="1" stop-color="#d35f5f" stop-opacity="0"/></linearGradient><linearGradient id="l" gradientUnits="userSpaceOnUse" x1="47.349163" x2="6.957703" xlink:href="#b" y1="36.893978" y2="27.07255"/><radialGradient id="m" cx="51.765625" cy="56.28857" gradientTransform="matrix(.9334581 0 0 .9286754 3.444583 4.083333)" gradientUnits="userSpaceOnUse" r="10.734375"><stop offset="0" stop-color="#b7dde5"/><stop offset=".88999999" stop-color="#357099"/><stop offset="1" stop-color="#2e4d6a"/></radialGradient><clipPath id="n"><path d="m46.25 77.28125c-3.114742 1.878588-5.21875 5.284909-5.21875 9.1875 0 5.927601 4.822399 10.75 10.75 10.75s10.71875-4.822399 10.71875-10.75c0-1.241846-.205798-2.421791-.59375-3.53125-4.878736-2.434525-10.34987-4.342576-15.65625-5.65625z"/></clipPath><radialGradient id="o" cx="51.770317" cy="56.477783" gradientUnits="userSpaceOnUse" r="10.732871"><stop offset="0"/><stop offset=".86000001" stop-opacity=".903226"/><stop offset="1" stop-opacity=".08871"/></radialGradient><radialGradient id="p" cx="48.674648" cy="59.261971" gradientTransform="matrix(1.2063796 -.01331481 .00561402 .50865426 -10.378151 29.421264)" gradientUnits="userSpaceOnUse" r="26.822975" xlink:href="#b"/><radialGradient id="q" cx="50.771" cy="77.765167" gradientTransform="matrix(1.7969842 .48150032 -.22361051 .83452608 -23.074576 -21.267538)" gradientUnits="userSpaceOnUse" r="22.41276"><stop offset="0" stop-color="#fefefe" stop-opacity="0"/><stop offset=".5" stop-color="#fefefe" stop-opacity=".498039"/><stop offset="1"/></radialGradient><radialGradient id="r" cx="48.337261" cy="29.055613" gradientTransform="matrix(1 0 0 .65212081 0 14.394561)" gradientUnits="userSpaceOnUse" r="34.808697"><stop offset="0" stop-color="#fefefe"/><stop offset=".5" stop-color="#fefefe" stop-opacity=".709677"/><stop offset="1" stop-color="#fefefe" stop-opacity="0"/></radialGradient><clipPath id="s"><rect height="84" rx="6" width="84" x="6" y="106"/></clipPath><filter id="t" color-interpolation-filters="sRGB" height="2.290626" width="1.499261" x="-.249631" y="-.645313"><feGaussianBlur stdDeviation="7.0761157"/></filter><linearGradient id="u" gradientUnits="userSpaceOnUse" x1="70.598213" x2="73.64286" y1="64.776787" y2="66.383926"><stop offset="0" stop-color="#eaac96"/><stop offset="1" stop-color="#db6f49"/></linearGradient><radialGradient id="v" cx="51.770317" cy="56.477783" gradientUnits="userSpaceOnUse" r="10.732871" xlink:href="#a"/><filter id="w" color-interpolation-filters="sRGB"><feGaussianBlur stdDeviation=".63548831"/></filter><clipPath id="x"><rect height="84" rx="6" width="84" x="6" y="6"/></clipPath><filter id="y" color-interpolation-filters="sRGB" height="1.290155" width="1.474133" x="-.237066" y="-.145077"><feGaussianBlur stdDeviation="5.5915179"/></filter><linearGradient id="z" gradientTransform="matrix(1.0058652 0 0 .994169 100 0)" gradientUnits="userSpaceOnUse" x1="45.447727" x2="45.447727" y1="92.539597" y2="7.01654"><stop offset="0"/><stop offset="1" stop-opacity=".588235"/></linearGradient><linearGradient id="A" gradientTransform="matrix(1.0238095 0 0 1.0119048 -1.142857 -98.071429)" gradientUnits="userSpaceOnUse" x1="32.251034" x2="32.251034" xlink:href="#z" y1="6.131708" y2="90.238609"/><linearGradient id="B" gradientTransform="translate(0 -97)" gradientUnits="userSpaceOnUse" x1="32.251034" x2="32.251034" xlink:href="#z" y1="6.131708" y2="90.238609"/><g><g fill="url(#A)"><path d="m12-95.03125c-5.5110903 0-10.03125 4.52016-10.03125 10.03125v71c0 5.5110902 4.5201598 10.03125 10.03125 10.03125h72c5.51109 0 10.03125-4.5201597 10.03125-10.03125v-71c0-5.51109-4.52016-10.03125-10.03125-10.03125z" opacity=".08" transform="scale(1 -1)"/><path d="m12-94.03125c-4.971633 0-9.03125 4.059617-9.03125 9.03125v71c0 4.9716329 4.0596171 9.03125 9.03125 9.03125h72c4.971633 0 9.03125-4.059617 9.03125-9.03125v-71c0-4.971633-4.059617-9.03125-9.03125-9.03125z" opacity=".1" transform="scale(1 -1)"/><path d="m12-93c-4.4091333 0-8 3.590867-8 8v71c0 4.4091333 3.5908667 8 8 8h72c4.409133 0 8-3.5908667 8-8v-71c0-4.409133-3.590867-8-8-8z" opacity=".2" transform="scale(1 -1)"/><rect height="85" opacity=".3" rx="7" transform="scale(1 -1)" width="86" x="5" y="-92"/></g><rect fill="url(#B)" height="84" opacity=".45" rx="6" transform="scale(1 -1)" width="84" x="6" y="-91"/></g><rect fill="url(#h)" height="84" rx="6" width="84" x="6" y="6"/><rect height="66" rx="12" style="opacity:.1;stroke:#fefefe;stroke-width:.5;stroke-linecap:round;clip-path:url(#g);fill:url(#e);filter:url(#d)" width="66" x="15" y="15"/><g><path clip-path="url(#x)" d="m92.321429 2.0714286-51.785715 1.6071428s42.678572 25.0000006 43.750001 52.1428576c-.178572 10-6.964286 38.035714-6.964286 38.035714l19.821428.714286z" fill="#fedbc5" filter="url(#y)"/><path d="m76.645324 62.286159c-5.050763-12.248099-22.605638-23.252468-42.0476-25.380083-9.263764-1.013772-17.172593 4.166879-17.172593 4.166879-13.2142858-15.535714-2.425131-19.537241-2.425131-19.537241s5.714285-2.857143 8.928571-2.857143c33.75 12.678571 56.428572 35.714286 56.428572 35.714286s1.10961 14.679016-3.711819 7.893302z" fill="url(#r)" opacity=".4"/><path d="m73.392857 67.071429s-38.571429 12.678571-45-21.785715c-8.928571-2.142857-7.321428 5.714286-7.321428 5.714286s7.678571 29.464285 52.678571 18.928571c0 0 2.142857-1.607142-.357143-2.857142z" fill="url(#p)" opacity=".6"/><path d="m14.015867 21.900362c-.487517-1.141747 6.207271-3.958161 9.596449-3.914341 7.446654.09465 19.134573 7.97775 28.536809 12.879445 9.979981 5.202893 29.296555 13.66555 28.53681 24.748737-2.380454 1.974232-14.029663-12.044798-28.284272-20.32932-9.900613-5.754057-17.747164-11.623843-27.905464-15.152288-3.346654-1.162447-10.022695 2.839537-10.480332 1.767767z" fill="url(#l)"/><path d="m28.536809 45.239835c3.030458 12.500638 9.044178 21.991009 23.785936 23.375561 10.325066.969735 20.092566-1.089071 21.039584-2.288627 0 0-.631345-6.313453-6.313454-10.606602-27.905464-14.268404-38.512066-10.480332-38.512066-10.480332z" fill="#fefefe"/><path d="m28.392857 43.321429-10.967726-2.248474s7.908829-5.180651 17.172593-4.166879c19.441962 2.127615 36.996837 13.131984 42.0476 25.380083 0 0 1.033247 2.106699-2.002467 2.28527-2.5-7.678571-13.392858-18.571429-46.25-21.25z" fill="url(#i)"/><path d="m22.097087 42.461915c5.071373-.87575 7.870682-1.101216 11.743023-.505076 12.304279 1.894221 25.029233 5.438357 35.102801 12.753176 3.140297 2.280295 7.8061 9.604341 5.682108 11.237947-1.799723 1.384204-.416309-5.333811-7.197337-9.848988-11.849621-7.890122-30.79303-11.962879-40.027294-10.669735-1.577339-2.378635-3.140004-2.312892-5.303301-2.967324z"/><path d="m46.25 47.28125c-3.114742 1.878588-5.21875 5.284909-5.21875 9.1875 0 5.927601 4.822399 10.75 10.75 10.75s10.71875-4.822399 10.71875-10.75c0-1.241846-.205798-2.421791-.59375-3.53125-4.878736-2.434525-10.34987-4.342576-15.65625-5.65625z" fill="url(#m)"/><path d="m28.536809 45.239835c3.030458 12.500638 9.044178 21.991009 23.785936 23.375561 10.325066.969735 20.092566-1.089071 21.039584-2.288627 0 0-.631345-6.313453-6.313454-10.606602-27.905464-14.268404-38.512066-10.480332-38.512066-10.480332z" fill="url(#q)" opacity=".3"/><g clip-path="url(#n)" transform="translate(0 -30)"><path d="m55.967298 96.892144c-.09433-1.072966-.332799-1.97399-.835212-3.158106-1.187859-2.119317-2.185404-4.138541-3.128773-6.537624.272103-1.173246.468199.766008.226994 1.361196.23617 2.667614-.161196 6.039299.24617 8.67487.609862 1.186752.807991-.66758.524606-1.185671-.310074-3.170373-.692667-6.050296-.994487-9.009408.424285-1.387073-.02452 1.225361-.363077 1.417148-.600944 2.589547-1.738485 5.608022-2.08649 8.483691.05497.985504.427388-.688462.371781-1.289886.786539-2.848183 1.149701-6.151502 1.733758-8.999976.677709-1.157609-.08018 1.159001-.417294 1.64472-1.545279 2.234536-3.463401 5.176391-4.771732 7.50467-.461046 1.183964.949469-.222269 1.058588-.817457 1.265915-2.741366 2.302747-5.52089 3.754839-8.2261 1.266925-.716977-.43005 1.324489-.64739 1.473154-2.040462 1.689476-4.687813 3.3195-6.56474 5.497697-.482855.85875 1.103486-.207983 1.289869-.751301 2.073236-2.260037 4.081205-4.253672 6.156486-6.210179 1.038559-.356276-.757126 1.095359-1.347303.992375-2.439108 1.032807-5.446262 1.539465-7.794628 2.986083-.680169.744556.911673-.09587 1.206863-.164137 2.869906-1.354297 5.049816-3.305902 7.692086-4.327538 1.183016.17952-1.051876.827825-1.294119.692361-2.909006.153298-5.944146.477627-8.890111.879527-.941926.66418 1.156455.51447 1.631212.174769 3.148655-.574253 5.586506-1.367778 8.746765-1.622102 1.161234.572399-1.382561.133621-1.595073-.179102-2.6248-.400217-6.070944-1.192182-8.698006-1.499358-1.331136.300106.798818.637058 1.365032.703221 2.895804.208525 5.910279.07303 8.691634.737739 1.204243.591079-1.047523-.238357-1.223693-.414831-2.715924-1.306959-5.041313-3.028297-7.810219-4.034127-1.053152-.01971.692915.814708 1.230022.740431 2.75501 1.054964 5.440571 2.086204 7.95455 3.631148.883132 1.201426-.745412-.569492-1.087326-1.112636-2.066408-1.801435-4.344177-4.068905-6.316734-5.919431-.878365-.566605.212126.83927.714724.88155 2.06243 2.08071 4.638686 3.511673 6.939988 5.737907.275832 1.146115-1.015094-.218729-1.052374-.858967-1.231674-2.339385-2.340013-5.53623-3.692786-7.840793-.934422-.617996-.650085 1.017369-.167815 1.241606 1.737047 2.624563 3.455399 5.05529 5.0482 7.767364.135976 1.480263-.873939-.934442-.757325-1.570868-.347045-2.774245-.764327-6.045849-1.325908-8.713138-.402202-1.08327-.397306.71949-.214994 1.274909.537199 2.907156 2.06769 5.736437 2.443203 8.689426-.185692 1.08847-.528607-.952243-.251802-1.539389.317546-2.627046 1.105365-5.57781 1.20966-8.221956-.08732-1.065623-.507819.830977-.323446 1.057062.0126 2.886942.178804 6.024454-.141888 8.807368-.658099.918809.02511-1.167048.183507-1.36004 1.290146-2.708572 2.770242-5.504457 3.611796-8.02165-.109561-1.154176-.866353.44466-.861754 1.045823-1.140051 2.658857-1.724727 6.12967-2.883322 8.699219-.83499.712829.635957-1.231135.831733-1.52194 2.000374-2.069894 3.815202-3.850307 5.516851-6.352026.232987-1.124405-1.163438.397703-1.155982.659866-1.81514 2.177401-3.24591 5.219456-5.109236 7.314091-1.098816.742039.809425-1.367555 1.065932-1.559398 2.338822-1.332706 4.650441-2.656419 7.095596-4.245036.673373-.740736-.8298-.225203-1.226587.232963-2.43024 1.943319-4.201821 4.034216-6.796908 5.448983-1.479891.202513.883733-.38782 1.189426-.499122 2.85811-.591518 5.991608-1.596928 8.583632-2.378738.816351-.777368-1.289166-.343767-1.639527.07773-3.040094.913832-5.407695 1.945152-8.329083 2.928385-1.472723-.170892 1.585678-.436083 1.812061-.330994 2.805872.278338 5.431404.48668 8.461749.403682 1.075254-.543106-.841662-.346703-1.103297-.389236-3.112975-.100399-6.189045.915143-8.990562.796326-.971339-.636785.991879-.408393 1.543328-.156883 2.493924.921882 5.189277 2.438678 7.859156 2.989976 1.043838-.133555-.863896-.650231-1.073991-.621676-2.748176-.672195-5.792231-1.318336-8.736495-2.126637-.873809-1.067309 1.452979.245836 1.517181.673751 2.239911 1.853839 4.574736 3.758971 7.144274 5.137688 1.017008.512995-.647292-.943521-1.032862-1.272876-2.696815-1.669685-5.101366-2.676841-7.564064-4.260282-.460862-1.026422 1.125235.314775 1.075331.811245 1.564043 2.412628 3.670796 4.921215 5.338905 7.08635 1.083065.496078-.105993-1.030055-.426255-1.465619-2.022113-2.126673-4.548212-4.426653-6.305214-6.63202-.479065-1.234254 1.34602 1.223929 1.148639 1.67649.759019 2.725468 1.420695 4.904086 2.611522 7.699567.205642.257032.08924.375908.146885.465777-.000696-.199999.344686-.08298.383578.113198" opacity=".3"/><path d="m50.931665 97.570328c.734269-1.832199.771744-3.454974.73809-5.107553-.05974-1.98584-.203174-3.706469.20869-5.408472.679534 1.048112-.957709 2.844738-1.574038 4.099626-.649299 1.567769-1.75164 2.969389-2.585876 4.789104.42704.964132 1.646804-1.889275 1.777622-2.670642.761186-2.27368 1.327114-4.76971 2.227206-6.585223.406426 1.044551-2.124452 2.611077-2.735968 3.787176-1.49112 1.430192-2.74613 2.909897-3.895896 4.200516.325627 1.215529 1.299718-1.674085 1.732492-1.903793 1.622897-1.966817 2.873975-4.542196 4.469682-6.277206-.01228 1.268306-2.314312 1.57992-3.494685 2.537403-1.688096.740538-3.55629 1.94607-4.998631 3.246279.899757.884044 2.192541-1.694942 3.260527-1.952615 1.559202-1.488784 3.567453-2.297718 5.361033-3.658987-.489453.80316-2.969373.354151-4.189984.992461-1.618474.32415-3.787209 1.283054-5.402597 1.718218-.260982 1.25915 2.67576-.963014 3.319363-1.009839 1.886736-.703206 4.066618-1.484542 6.121978-2.222053-.793621 1.007328-2.940944.314659-4.060265.316563-1.911659-.369152-4.101602-.08793-5.824324-.168131-.45703.799224 1.690081-.142506 2.300806.08713 2.553879.04535 5.201344-.352338 7.734083-.04571-.744867.655905-3.164142-.987112-4.285603-1.203154-1.579095-.669613-3.400527-1.342296-5.407639-1.978965-.007.957191 2.296932 1.044475 3.319066 1.356201 2.361157.550971 4.703375.545155 6.61244 1.331574-.851364.272344-2.658179-1.469093-3.970791-2.118562-1.414607-.998853-2.397768-2.664395-4.169924-3.646175-1.134041.175521 1.276211 1.371125 1.557571 1.615515 1.973069 1.296284 4.479328 2.905137 6.670853 4.2942-.948911.149784-2.451841-2.487759-3.103525-3.483018-1.210249-1.599083-2.03969-3.282278-3.015664-4.69344-1.13263-.121528 1.321401 2.667088 1.657123 3.161738 1.332948 1.739146 3.25525 3.158352 4.360536 4.967262-1.212507-.265784-1.256525-2.989675-1.688259-4.01835-.40657-1.967378-1.046189-3.898933-1.859766-5.463076-.967595-.490691.632963 1.462785.710726 2.176878.954392 2.456288 1.973414 4.516721 3.001173 6.973441-.68643-.594879.09176-2.687253-.103409-4.185961.03416-2.082705-.145236-3.788755-.463978-5.519971-.970204-.402868-.09565 2.049657-.232827 2.483173.544995 2.477618.868257 5.097335 1.146231 7.556094-.830273-.774568.721675-3.295867.769188-4.6606.772435-1.725301 1.203002-3.360764 1.427494-5.328345-.646478-.621879-.950381 1.8767-.943615 2.309061-.412856 2.700014-.401409 5.277526-.902437 7.60005-.179131-1.090974 1.489996-2.689338 1.973807-4.017445 1.280713-1.539342 1.937612-2.965844 2.984257-4.760585-.218743-1.040125-1.149981 1.494317-1.659638 1.939601-1.208087 2.445631-2.351966 4.92686-3.559838 6.930719-.184207-1.24668 2.308809-1.872711 3.165668-3.013267 1.55282-.984145 3.067811-2.640289 4.632737-3.970157-1.018083-.734774-1.880163 1.698672-2.685834 2.440769-1.711679 1.658535-3.400397 3.330821-4.923313 4.889886.295945-1.253786 2.936995-1.937385 4.013579-2.380902 1.652449-.837012 3.522879-1.285623 5.005134-2.107166.404487-.970321-1.769637.681886-2.102873.952367-2.18343 1.435175-4.571979 2.696533-6.695117 3.676915.554626-.723926 2.847381-.669873 4.134554-1.124725 1.721034.01483 3.779867-.321384 5.53025-.469961.316704-.969971-1.386335.08481-2.153689.152563-2.649153.436129-5.061401 1.29157-7.42416 1.455838.653657-.617026 2.605602.463001 3.994739.413564 1.826276.246699 3.807446 1.056711 5.535569 1.165906.927946-.86308-1.604656-.193552-2.107046-.501095-2.340163-.310044-4.984348-.406311-7.528472-1.070405 1.174577-.377371 2.668149 1.445925 3.770398 2.128197 1.799508 1.0324 3.085085 1.883772 4.845227 2.46675 1.055262-.656617-1.002872-.996805-1.700501-1.253495-2.441336-.776423-4.907779-2.168072-7.284241-3.206512 1.264636.0084 2.043298 2.354666 3.25319 3.166756 1.253212 1.227662 3.114761 2.876879 4.389096 4.033285.606397-.92553-2.010528-1.937407-2.429031-2.780994-1.924388-1.458892-3.296553-2.4559-5.067092-4.010416 1.08127-.02535 1.251137 2.418937 1.929018 3.701512.636595 1.528608 1.682454 2.814347 2.63283 4.598692 1.315196.132038-.686214-2.013468-1.233019-2.629468-1.337479-1.996165-2.536254-3.686507-3.728686-5.548655 1.128267.639055.58073 2.483771 1.077576 3.902452.08807 1.998697.40996 4.147387 1.086266 6.030618.77646-.646573-.104024-2.417742-.298971-3.579373-.514983-1.973914-1.548358-4.397289-1.784558-6.475499.958586.659487-.547483 3.158579-.393639 4.369625-.19265 1.888012-.943307 4.216141-.872103 6.094907-.0501-.193623.156922-.269622.334565-.177738-.180893-.08531-.320751.356431-.24764.170273.190948.05949.05362-.0058.163047-.173189" opacity=".1"/></g><path d="m62.503188 56.477783a10.732871 10.732871 0 1 1 -21.465742 0 10.732871 10.732871 0 1 1 21.465742 0z" fill="url(#o)" transform="matrix(.43529413 0 0 .43529413 29.235002 31.893336)"/><path d="m17.425131 41.072955s7.908829-5.180651 17.172593-4.166879c19.441962 2.127615 36.996837 13.131984 42.0476 25.380083" fill="none" filter="url(#w)" stroke="url(#j)"/><path d="m71.4375 60.8125c.593604 5.114599-1.140506 6.509827-7.625 7.75 5.177776-.495478 8.991161-1.526304 9.5625-2.25 0 0-.287731-2.534632-1.9375-5.5z" fill="url(#u)"/><path d="m27.652926 45.366104s-4.166879 0-7.702413 2.272843c7.323606-1.894036 8.207489 0 8.207489 0s-3.409265.252538-4.924494 3.030458c2.272844-2.399112 5.429571-1.515229 5.55584.126269 0 0-3.156727.883883-5.303301 4.798224 3.282996-3.661803 6.060915-2.525381 6.060915-2.525381s-.953644.848098-2.904189 4.04061c2.525382-3.030457 4.671956-2.272843 4.671956-2.272843s-2.399112 1.388959-4.04061 6.439722c3.282996-5.555839 5.555839-4.04061 5.555839-4.04061s-1.38896 2.020306-1.767767 4.545687c1.894036-2.777919 3.914341-1.515229 3.914341-1.515229s-2.146574 1.010153-3.914341 4.671956c4.166879-4.16688 4.671956-2.77792 4.671956-2.77792s-.757616 1.010152-1.388961 2.777919c2.65165-1.641498 3.030459-.883883 5.682109-.126269-7.702413-8.333758-12.374369-19.445436-12.374369-19.445436z" opacity=".7"/><path d="m29.25 44.875c-1.430392.132188-2.09375.375-2.09375.375 3.030458 12.500638 9.164492 22.740448 23.90625 24.125 10.325066.969735 22.115482-1.206694 23.0625-2.40625 0 0-.144481-.305435-.1875-.40625-3.983059 1.119593-12.899332 2.320383-20.96875 1.5625-14.380176-1.350592-20.579351-11.167648-23.6875-23.25-.0092.000834-.02213-.000842-.03125 0z" fill="url(#k)"/><path d="m29.25 44.875c-1.430392.132188-2.09375.375-2.09375.375 3.030458 12.500638 9.164492 22.740448 23.90625 24.125 10.325066.969735 22.115482-1.206694 23.0625-2.40625 0 0-.144481-.305435-.1875-.40625-3.983059 1.119593-12.899332 2.320383-20.96875 1.5625-14.380176-1.350592-20.579351-11.167648-23.6875-23.25-.0092.000834-.02213-.000842-.03125 0z" fill="url(#k)"/><path d="m30.25 43.875c-1.430392.132188-2.09375.375-2.09375.375.06133.252979.123584.498928.1875.75.25765-.0399.560364-.09304.90625-.125.0091-.000842.02205.000834.03125 0 3.108149 12.082352 9.307324 21.899408 23.6875 23.25 8.069418.757883 16.985691-.442907 20.96875-1.5625.609315-.214689 1.042488-.410068 1.1875-.59375 0 0-.144481-.305435-.1875-.40625-3.983059 1.119593-12.899332 2.320383-20.96875 1.5625-14.380176-1.350592-20.579351-11.167648-23.6875-23.25-.0092.000834-.02213-.000842-.03125 0z" opacity=".2"/><path d="m29.25 44.875c-1.430392.132188-2.09375.375-2.09375.375 3.030458 12.500638 9.164492 22.740448 23.90625 24.125 1.618331.151994 3.263317.205462 4.90625.21875-1.312385-.030952-2.615617-.097533-3.90625-.21875-14.741758-1.384552-20.875792-11.624362-23.90625-24.125 0 0 .366234-.125942 1.15625-.25-.01079-.0416-.02053-.08335-.03125-.125-.0092.000834-.02213-.000842-.03125 0zm44.6875 21.6875c-2.945845.828044-8.589349 1.68962-14.59375 1.78125 5.833345-.0024 11.393852-.761099 14.6875-1.5625-.04327-.09263-.07088-.165146-.09375-.21875z"/><path clip-path="url(#s)" d="m25.183036 163.68304c-11.425697 3.37152-16.5738209 15.79441-17.026786 24.91071 1.0411729.87146 2.373613 1.40625 3.84375 1.40625h64.1875l-5.65625-14.71875s-33.383928 1.61607-45.348214-11.59821z" fill="#d79171" filter="url(#t)" transform="translate(0 -100)"/><path d="m62.503188 56.477783a10.732871 10.732871 0 1 1 -21.465742 0 10.732871 10.732871 0 1 1 21.465742 0z" fill="url(#v)" transform="matrix(.43529413 0 0 .43529413 22.235002 29.893336)"/><path d="m62.503188 56.477783a10.732871 10.732871 0 1 1 -21.465742 0 10.732871 10.732871 0 1 1 21.465742 0z" fill="url(#v)" transform="matrix(.60000001 0 0 .60000001 30.930207 27.939463)"/><path d="m31.990716 44.18462s-11.061601.462842-12.392481-8.807785c2.094904 7.466103 14.138049 8.400527 14.138049 8.400527s-11.124958.137243-10.032309-12.308417c-.419091 10.523565 12.112629 12.579464 12.112629 12.579464s-9.29842-3.327135-6.382603-11.092421c-1.717432 7.498297 8.490027 11.155436 8.490027 11.155436s-6.535394-4.236518-1.638526-10.156965c-3.345778 5.382068 3.429499 11.025002 3.429499 11.025002s-3.803875-4.092187.170746-7.805598c-2.613265 4.631256 1.574822 7.39834 1.574822 7.39834s-1.727957-2.975462 1.418938-7.642971c-2.409633 5.504039.372036 8.511008.372036 8.511008s-.412006-3.332912 1.771985-5.481337c-1.654762 2.95785-.02642 5.07408-.02642 5.07408s-.588187-1.980706 1.817389-4.206042c-1.962407 2.071514-.44248 5.01987-.44248 5.01987s.338808-2.600399 1.971213-3.762873c-1.731673 2.736266.082 4.241952.082 4.241952-15.430959-4.972403-16.43452-2.14127-16.43452-2.14127z"/><path d="m33.909988 43.691476s-9.597573.357143-10.752308-6.796365c1.817639 5.761081 12.266847 6.482112 12.266847 6.482112s-9.652546.105901-8.704512-9.497563c-.363622 8.120315 10.509496 9.706711 10.509496 9.706711s-8.067753-2.567322-5.537851-8.559262c-1.490126 5.785923 7.366353 8.607887 7.366353 8.607887s-5.67042-3.269032-1.421663-7.837435c-2.902957 4.152973 2.975597 8.507239 2.975597 8.507239s-3.300425-3.15766.148148-6.023046c-2.267394 3.573624 1.36639 5.708793 1.36639 5.708793s-1.499258-2.29596 1.231138-5.897558c-2.090713 4.247091.322796 6.567363.322796 6.567363s-.357476-2.57178 1.53746-4.229573c-1.435751 2.282371-.02293 3.915321-.02293 3.915321s-.510339-1.528376 1.576854-3.245515c-1.702678 1.598445-.383917 3.87349-.383917 3.87349s.293966-2.00655 1.710318-2.903552c-1.502481 2.11139.07114 3.273224.07114 3.273224-13.388624-3.836863-14.259361-1.652271-14.259361-1.652271z"/><path d="m48.401455 46.443038s-3.715715-2.900963-.700758-6.438387c-2.093896 3.256463 1.726455 7.049416 1.726455 7.049416s-2.121426-2.709749.297996-4.895226c-1.646315 2.811965.733506 4.703765.733506 4.703765s-.935345-1.932064 1.024066-4.747144c-1.549341 3.367527.0016 5.358174.0016 5.358174s-.156435-2.108067 1.175738-3.376749c-1.043115 1.796446-.144243 3.185287-.144243 3.185287s-.293823-1.265438 1.169932-2.574257c-1.200593 1.228544-.38626 3.135928-.38626 3.135928s.264204-1.620442 1.248673-2.290309c-1.082483 1.654472-.0597 2.666748-.0597 2.666748-5.190263-1.318731-5.763605-.54703-6.087035-1.777246z"/><path d="m51.252975 47.893473s-3.881033-2.428058-.731936-5.388822c-2.187057 2.725605 1.803269 5.900243 1.803269 5.900243s-2.215812-2.268015.311254-4.097222c-1.719563 2.353567.766141 3.936972.766141 3.936972s-.97696-1.617105 1.069629-3.97328c-1.618274 2.818564.0017 4.484702.0017 4.484702s-.163395-1.764417 1.228049-2.826282c-1.089525 1.503595-.150661 2.666032-.150661 2.666032s-.306896-1.059151 1.221985-2.15461c-1.25401 1.02827-.403446 2.624719-.403446 2.624719s.275959-1.356283 1.304229-1.91695c-1.130645 1.384765-.06236 2.232023-.06236 2.232023-5.421188-1.103756-6.020039-.457855-6.357859-1.487525z"/></g><path d="m12 6c-3.324 0-6 2.676-6 6v2 68 2c0 .334721.04135.6507.09375.96875.0487.295596.09704.596915.1875.875.00988.03038.020892.0636.03125.09375.098865.287771.2348802.547452.375.8125.1445918.273507.3156161.535615.5.78125s.3737765.473472.59375.6875c.439947.428056.94291.814526 1.5 1.09375.278545.139612.5734731.246947.875.34375-.2562018-.100222-.4867109-.236272-.71875-.375-.00741-.0044-.023866.0045-.03125 0-.031933-.0193-.062293-.04251-.09375-.0625-.120395-.0767-.2310226-.163513-.34375-.25-.1061728-.0808-.2132809-.161112-.3125-.25-.1779299-.161433-.3474596-.345388-.5-.53125-.1075789-.130255-.2183939-.265285-.3125-.40625-.025089-.03838-.038446-.08587-.0625-.125-.064763-.103032-.1302275-.204517-.1875-.3125-.1010083-.194706-.2056748-.415701-.28125-.625-.00796-.02181-.023589-.04055-.03125-.0625-.0318251-.09195-.0358045-.186831-.0625-.28125-.0303323-.106618-.0703894-.203031-.09375-.3125-.0728786-.341512-.125-.698205-.125-1.0625v-2-68-2c0-2.781848 2.2181517-5 5-5h2 68 2c2.781848 0 5 2.218152 5 5v2 68 2c0 .364295-.05212.720988-.125 1.0625-.04415.206893-.08838.397658-.15625.59375-.0077.02195-.0233.04069-.03125.0625-.06274.173739-.138383.367449-.21875.53125-.04158.0828-.07904.169954-.125.25-.0546.09721-.126774.18835-.1875.28125-.09411.140965-.204921.275995-.3125.40625-.143174.17445-.303141.346998-.46875.5-.01117.0102-.01998.02115-.03125.03125-.138386.125556-.285091.234436-.4375.34375-.102571.07315-.204318.153364-.3125.21875-.0074.0045-.02384-.0044-.03125 0-.232039.138728-.462548.274778-.71875.375.301527-.0968.596455-.204138.875-.34375.55709-.279224 1.060053-.665694 1.5-1.09375.219973-.214028.409366-.441865.59375-.6875s.355408-.507743.5-.78125c.14012-.265048.276135-.524729.375-.8125.01041-.03078.02133-.06274.03125-.09375.09046-.278085.1388-.579404.1875-.875.0524-.31805.09375-.634029.09375-.96875v-2-68-2c0-3.324-2.676-6-6-6z" fill="url(#c)" opacity=".5"/><path d="m12 90c-3.324 0-6-2.676-6-6v-2-68-2c0-.334721.04135-.6507.09375-.96875.0487-.295596.09704-.596915.1875-.875.00988-.03038.020892-.0636.03125-.09375.098865-.287771.2348802-.547452.375-.8125.1445918-.273507.3156161-.535615.5-.78125s.3737765-.473472.59375-.6875c.439947-.428056.94291-.814526 1.5-1.09375.278545-.139612.5734731-.246947.875-.34375-.2562018.100222-.4867109.236272-.71875.375-.00741.0044-.023866-.0045-.03125 0-.031933.0193-.062293.04251-.09375.0625-.120395.0767-.2310226.163513-.34375.25-.1061728.0808-.2132809.161112-.3125.25-.1779299.161433-.3474596.345388-.5.53125-.1075789.130255-.2183939.265285-.3125.40625-.025089.03838-.038446.08587-.0625.125-.064763.103032-.1302275.204517-.1875.3125-.1010083.194706-.2056748.415701-.28125.625-.00796.02181-.023589.04055-.03125.0625-.0318251.09195-.0358045.186831-.0625.28125-.0303323.106618-.0703894.203031-.09375.3125-.0728786.341512-.125.698205-.125 1.0625v2 68 2c0 2.781848 2.2181517 5 5 5h2 68 2c2.781848 0 5-2.218152 5-5v-2-68-2c0-.364295-.05212-.720988-.125-1.0625-.04415-.206893-.08838-.397658-.15625-.59375-.0077-.02195-.0233-.04069-.03125-.0625-.06274-.173739-.138383-.367449-.21875-.53125-.04158-.0828-.07904-.169954-.125-.25-.0546-.09721-.126774-.18835-.1875-.28125-.09411-.140965-.204921-.275995-.3125-.40625-.143174-.17445-.303141-.346998-.46875-.5-.01117-.0102-.01998-.02115-.03125-.03125-.138386-.125556-.285091-.234436-.4375-.34375-.102571-.07315-.204318-.153364-.3125-.21875-.0074-.0045-.02384.0044-.03125 0-.232039-.138728-.462548-.274778-.71875-.375.301527.0968.596455.204138.875.34375.55709.279224 1.060053.665694 1.5 1.09375.219973.214028.409366.441865.59375.6875s.355408.507743.5.78125c.14012.265048.276135.524729.375.8125.01041.03078.02133.06274.03125.09375.09046.278085.1388.579404.1875.875.0524.31805.09375.634029.09375.96875v2 68 2c0 3.324-2.676 6-6 6z" fill="url(#f)" opacity=".2"/></svg>