<!DOCTYPE svg PUBLIC "-//W3C//DTD SVG 1.1//EN" "http://www.w3.org/Graphics/SVG/1.1/DTD/svg11.dtd">
<!-- Uploaded to: SVG Repo, www.svgrepo.com, Transformed by: SVG Repo Mixer Tools -->
<svg width="800px" height="800px" viewBox="0 0 24 24" xmlns="http://www.w3.org/2000/svg" fill="#ffffff" stroke="#ffffff">
<g id="SVGRepo_bgCarrier" stroke-width="0"/>
<g id="SVGRepo_tracerCarrier" stroke-linecap="round" stroke-linejoin="round"/>
<g id="SVGRepo_iconCarrier"> <path fill="none" stroke="#c0bfbc" stroke-width="1.6799999999999997" d="M2,3.99079514 C2,2.89130934 2.89821238,2 3.99079514,2 L20.0092049,2 C21.1086907,2 22,2.89821238 22,3.99079514 L22,20.0092049 C22,21.1086907 21.1017876,22 20.0092049,22 L3.99079514,22 C2.89130934,22 2,21.1017876 2,20.0092049 L2,3.99079514 Z M12,15 L12,14 C12,13 12,12.5 13,12 C14,11.5 15,11 15,9.5 C15,8.5 14,7 12,7 C10,7 9,8.26413718 9,10 M12,16 L12,18"/> </g>
</svg>