<?xml version="1.0" encoding="UTF-8" standalone="no"?>
<svg
   version="1.1"
   width="256"
   height="256"
   viewBox="0 0 256 256"
   xml:space="preserve"
   id="svg1"
   sodipodi:docname="mv6-doc.svg"
   inkscape:version="1.4.1 (1:1.4.1+202503302257+93de688d07)"
   xmlns:inkscape="http://www.inkscape.org/namespaces/inkscape"
   xmlns:sodipodi="http://sodipodi.sourceforge.net/DTD/sodipodi-0.dtd"
   xmlns="http://www.w3.org/2000/svg"
   xmlns:svg="http://www.w3.org/2000/svg"><defs
   id="defs1" /><sodipodi:namedview
   id="namedview1"
   pagecolor="#ffffff"
   bordercolor="#111111"
   borderopacity="1"
   inkscape:showpageshadow="0"
   inkscape:pageopacity="0"
   inkscape:pagecheckerboard="1"
   inkscape:deskcolor="#d1d1d1"
   inkscape:zoom="7.1523438"
   inkscape:cx="128"
   inkscape:cy="128"
   inkscape:window-width="3840"
   inkscape:window-height="2036"
   inkscape:window-x="0"
   inkscape:window-y="0"
   inkscape:window-maximized="1"
   inkscape:current-layer="svg1" />
<g
   style="stroke: none; stroke-width: 0; stroke-dasharray: none; stroke-linecap: butt; stroke-linejoin: miter; stroke-miterlimit: 10; fill: none; fill-rule: nonzero; opacity: 1;"
   transform="translate(1.4065934065934016 1.4065934065934016) scale(2.81 2.81)"
   id="g1">
	<path
   d="M 89,30.872 H 83.277 V 16.685 c 0,-0.271 -0.11,-0.531 -0.305,-0.719 -0.196,-0.188 -0.452,-0.294 -0.729,-0.28 -4.328,0.149 -8.538,0.752 -12.554,1.749 V 6.489 C 69.689,6.145 69.512,5.824 69.22,5.642 68.927,5.458 68.564,5.439 68.252,5.589 59.362,9.898 51.459,18.237 44.742,30.364 34.734,21.111 22.995,16.165 9.821,15.685 9.542,15.666 9.286,15.776 9.09,15.965 8.895,16.153 8.784,16.413 8.784,16.685 v 7.33 c -1.392,0.098 -2.803,0.225 -4.22,0.4 -0.504,0.063 -0.882,0.493 -0.877,1.001 l 0.047,5.456 H 0 v 53.639 h 45 44 c 0.553,0 1,-0.447 1,-1 V 31.872 c 0,-0.552 -0.447,-1 -1,-1 z M 81.277,17.728 V 67.274 C 69.173,67.873 58.23,71.871 48.657,79.167 54.671,69.411 61.54,62.613 69.126,58.937 69.471,58.77 69.689,58.42 69.689,58.038 v -38.55 c 3.704,-0.955 7.589,-1.556 11.588,-1.76 z M 67.689,8.127 V 57.418 C 59.575,61.524 52.293,69.006 46,79.693 V 32.215 C 52.254,20.646 59.544,12.552 67.689,8.127 Z M 44,32.39 V 81.122 C 43.898,81.064 43.794,81.01 43.691,80.952 34.162,72.532 23.11,67.933 10.784,67.277 V 24.922 c 0,-0.013 0.006,-0.024 0.005,-0.038 0,-0.007 -0.005,-0.013 -0.005,-0.02 V 17.731 C 23.312,18.424 34.48,23.352 44,32.39 Z M 8.784,26.017 v 42.216 c 0,0.538 0.426,0.979 0.963,0.999 9.224,0.336 17.72,2.954 25.382,7.782 C 26.305,73.829 16.592,72.798 6.106,73.951 L 5.694,26.296 c 1.038,-0.117 2.069,-0.205 3.09,-0.279 z M 2,32.872 h 1.751 l 0.366,42.211 c 0.002,0.285 0.126,0.556 0.341,0.743 0.214,0.188 0.501,0.273 0.782,0.24 13.865,-1.716 26.332,0.461 37.135,6.444 H 2 Z M 88,82.511 H 47.668 c 10,-8.366 21.642,-12.831 34.643,-13.278 0.539,-0.019 0.966,-0.46 0.966,-0.999 V 32.872 H 88 Z"
   style="display:inline;opacity:1;fill:#d33222;fill-rule:nonzero;stroke:none;stroke-width:1;stroke-linecap:butt;stroke-linejoin:miter;stroke-miterlimit:10;stroke-dasharray:none;fill-opacity:1"
   stroke-linecap="round"
   id="path1"
   inkscape:label="path1" />
</g>
</svg>
