<?xml version="1.0" encoding="UTF-8"?>
<svg version="1.1" xmlns="http://www.w3.org/2000/svg" width="512" height="512">
<path d="M0,0 L492,0 L498,4 L502,10 L502,21 L496,30 L485,43 L476,54 L467,65 L453,82 L442,95 L434,105 L420,122 L406,139 L392,156 L381,169 L373,179 L359,196 L345,213 L331,230 L320,243 L315,250 L314,408 L311,415 L303,421 L269,438 L246,449 L202,471 L199,472 L189,472 L182,468 L178,461 L177,250 L169,240 L158,227 L150,217 L136,200 L122,183 L111,170 L103,160 L89,143 L75,126 L64,113 L56,103 L42,86 L28,69 L17,56 L9,46 L-5,29 L-10,21 L-10,10 L-6,4 Z M40,32 L46,40 L58,54 L69,68 L82,83 L90,93 L104,110 L118,127 L132,144 L143,157 L151,167 L165,184 L179,201 L190,214 L198,224 L206,234 L209,241 L210,430 L216,428 L266,403 L282,395 L283,241 L286,234 L297,221 L305,211 L316,198 L324,188 L338,171 L352,154 L363,141 L371,131 L385,114 L399,97 L413,80 L424,67 L432,57 L446,40 L452,32 Z " fill="#ebcece" transform="translate(10,20)"/>
</svg>
